<svg xmlns="http://www.w3.org/2000/svg" width="1480" height="810"><rect rx="5" width="100%" height="100%" fill="#282D35"/><circle cx="20" cy="20" r="6" fill="#FF5F56"/><circle cx="40" cy="20" r="6" fill="#FFBD2E"/><circle cx="60" cy="20" r="6" fill="#18C132"/><defs><clipPath id="clip"><rect width="1440" height="750"/></clipPath><g id="a"><text x="60" y="70" class="b">[</text><text x="276" y="70" class="e b">0.0%</text><text x="324" y="70" class="b">]</text></g><g id="b"><text x="300" y="645" class="a">919M 91</text><text x="384" y="645">708</text><text x="432" y="645" class="a">32</text></g><text id="c" x="756" y="645" class="f">/home/mrmarble/.vscode-server/bin/b5205cc8eb4fbaa72683553</text><g id="d"><text x="36" y="20" class="g b">termsvg</text><text x="132" y="20" class="k b">git:(</text><text x="192" y="20" class="h b">master</text><text x="264" y="20" class="k b">)</text><text x="288" y="20" class="q b">✗</text></g><g id="e"><text x="72" y="345" class="e b">root</text><text x="204" y="345">20   0</text><text x="300" y="345" class="a">2</text><text x="312" y="345">424</text><text x="372" y="345" class="a">1</text><text x="384" y="345">524</text><text x="444" y="345" class="a">1</text></g><text id="f" y="20" class="i b">➜</text><text id="g" y="45" class="h b">➜</text><g id="h"><text x="72" y="420" class="e b">root</text><text x="204" y="420">20   0</text></g><text id="i" x="1368" y="70" class="b">]</text><text id="j" x="1104" y="70" class="b">[</text><g id="k"><text x="288" y="345" class="a">1484M  9</text><text x="384" y="345">476</text><text x="444" y="345" class="a">2</text></g><text id="l" x="300" y="470" class="a">2</text><text id="m" x="300" y="420" class="a">1</text><text id="n" x="756" y="345" class="f">./../swatch/swatch examples/session.svg</text><text id="o" x="720" y="245" class="a">Uptime:</text><text id="p" x="456" y="545">760 S  0.0  1.1  0:00.00</text><text id="q" x="1068" y="70" class="a">20</text><text id="r" x="720" y="70" class="a">14</text><text id="s" x="372" y="70" class="a">8</text><text id="t" x="24" y="70" class="a">2</text><g id="u"><text x="72" y="395" class="e b">root</text><text x="204" y="395">20   0</text><text x="300" y="395" class="a">2</text></g><g id="v"><text x="36" y="495">14 mrmarble   20   0</text><text x="300" y="495" class="a">2</text><text x="312" y="495">612</text><text x="372" y="495" class="a">1</text><text x="384" y="495">676</text><text x="444" y="495" class="a">1</text><text x="456" y="495">560 S  0.0  0.0  0:00.00 sh /mnt/c/Users/alv_t/.vscode/extensions/ms-vscode-remote</text></g><text id="w" x="312" y="470">612   600   532 S  0.0  0.0  0:00.00 sh -c "$VSCODE_WSL_EXT_LOCATION/scripts/wslServer.sh" b52</text><text id="x" x="312" y="520">612   600   532 S  0.0  0.0  0:00.00 sh /home/mrmarble/.vscode-server/bin/b5205cc8eb4fbaa72683</text><g id="y"><text x="456" y="345">020 S  0.0  0.0  0:00.26</text><text x="756" y="345" class="f">/init</text></g><g id="z"><text x="456" y="370">020 S  0.0  0.0  0:00.00</text><text x="756" y="370" class="f">/init</text></g><text id="aa" x="312" y="420">752    72     0 S  0.0  0.0  0:00.00 /init</text><text id="ab" x="312" y="445">752    80     0 S  0.0  0.0  0:00.07 /init</text><text id="ac" x="456" y="395">020 S  0.0  0.0  0:00.94 /init</text><text id="ad" x="12" y="345">3198 mrmarble   20   0</text><text id="ae" x="12" y="370">3374 mrmarble   20   0</text><text id="af" x="456" y="695">760 S  0.0  1.1  0:02.70</text><text id="ag" x="456" y="570">760 S  0.0  1.1  0:03.82</text><text id="ah" x="456" y="595">760 S  0.0  1.1  0:03.75</text><text id="ai" x="456" y="620">760 S  0.0  1.1  0:03.76</text><g id="aj"><use href="#f"/><use href="#d"/><text x="312" y="20" class="f">htop</text></g><g id="ak"><text x="24" y="45" class="a">1</text><use href="#a" y="-25"/><text x="372" y="45" class="a">7</text><use href="#a" x="348" y="-25"/><text x="720" y="45" class="a">13</text><use href="#a" x="696" y="-25"/><text x="1068" y="45" class="a">19</text><use href="#a" x="1044" y="-25"/></g><g id="al"><text x="24" y="95" class="a">3</text><use href="#a" y="25"/><text x="372" y="95" class="a">9</text><use href="#a" x="348" y="25"/><text x="720" y="95" class="a">15</text><use href="#a" x="696" y="25"/><text x="1068" y="95" class="a">21</text><use href="#a" x="1044" y="25"/></g><g id="am"><text x="24" y="120" class="a">4</text><use href="#a" y="50"/><text x="372" y="120" class="a">10</text><use href="#a" x="348" y="50"/><text x="720" y="120" class="a">16</text><use href="#a" x="696" y="50"/><text x="1068" y="120" class="a">22</text><use href="#a" x="1044" y="50"/></g><g id="an"><text x="24" y="145" class="a">5</text><use href="#a" y="75"/><text x="372" y="145" class="a">11</text><use href="#a" x="348" y="75"/><text x="720" y="145" class="a">17</text><use href="#a" x="696" y="75"/><text x="1068" y="145" class="a">23</text><use href="#a" x="1044" y="75"/></g><g id="ao"><text x="24" y="170" class="a">6</text><use href="#a" y="100"/><text x="372" y="170" class="a">12</text><use href="#a" x="348" y="100"/><text x="720" y="170" class="a">18</text><use href="#a" x="696" y="100"/><text x="1068" y="170" class="a">24</text><use href="#a" x="1044" y="100"/></g><g id="ap"><text x="24" y="195" class="a">Mem</text><use href="#j" x="-1044" y="125"/><text x="72" y="195" class="f">|||||||||||||</text><text x="228" y="195" class="o">||||</text><text x="276" y="195" class="p">||||||||||||||||</text><text x="540" y="195" class="e b">2.00G/7.72G</text><use href="#i" x="-696" y="125"/><text x="720" y="195" class="a">Tasks:</text><text x="804" y="195" class="g b">41</text><text x="828" y="195" class="a">,</text><text x="852" y="195" class="i b">211</text><text x="900" y="195" class="f">thr</text><text x="936" y="195" class="a">;</text><text x="960" y="195" class="i b">1</text><text x="984" y="195" class="a">running</text></g><g id="aq"><text x="24" y="220" class="a">Swp</text><use href="#j" x="-1044" y="150"/><text x="576" y="220" class="e b">0K/2.00G</text><use href="#i" x="-696" y="150"/><text x="720" y="220" class="a">Load average:</text><text x="888" y="220" class="b">0.00</text><text x="948" y="220" class="g b">0.08</text><text x="1008" y="220" class="a">0.17</text></g><g id="ar"><rect class="j" y="275" width="528" height="25"/><rect class="d" x="528" y="275" width="60" height="25"/><rect class="j" x="588" y="275" width="852" height="25"/><text x="24" y="295" class="c">PID USER      PRI  NI  VIRT   RES   SHR S</text><text x="528" y="295" class="c">CPU%</text><text x="588" y="295" class="c">MEM%   TIME+  Command</text></g><g id="as"><rect class="d" x="24" y="725" width="72" height="25"/><rect class="d" x="120" y="725" width="72" height="25"/><rect class="d" x="216" y="725" width="72" height="25"/><rect class="d" x="312" y="725" width="72" height="25"/><rect class="d" x="408" y="725" width="72" height="25"/><rect class="d" x="504" y="725" width="72" height="25"/><rect class="d" x="600" y="725" width="72" height="25"/><rect class="d" x="696" y="725" width="72" height="25"/><rect class="d" x="792" y="725" width="72" height="25"/><rect class="d" x="900" y="725" width="540" height="25"/><text y="745">F1</text><text x="24" y="745" class="c">Help</text><text x="96" y="745">F2</text><text x="120" y="745" class="c">Setup</text><text x="192" y="745">F3</text><text x="216" y="745" class="c">Search</text><text x="288" y="745">F4</text><text x="312" y="745" class="c">Filter</text><text x="384" y="745">F5</text><text x="408" y="745" class="c">Tree</text><text x="480" y="745">F6</text><text x="504" y="745" class="c">SortBy</text><text x="576" y="745">F7</text><text x="600" y="745" class="c">Nice -</text><text x="672" y="745">F8</text><text x="696" y="745" class="c">Nice +</text><text x="768" y="745">F9</text><text x="792" y="745" class="c">Kill</text><text x="864" y="745">F10</text><text x="900" y="745" class="c">Quit</text></g><g id="at"><text x="12" y="420">4385 mrmarble   20   0</text><text x="300" y="420" class="a">8</text><text x="312" y="420">284</text><text x="372" y="420" class="a">3</text><text x="384" y="420">688</text><text x="444" y="420" class="a">3</text><text x="456" y="420">028</text><text x="504" y="420" class="f">R</text><text x="540" y="420">0.0  0.0  0:00.01 htop</text></g><g id="au"><text x="48" y="445">5</text><use href="#e" y="100"/><use href="#y" y="100"/></g><g id="av"><text x="48" y="470">6</text><use href="#e" y="125"/><use href="#z" y="100"/></g><g id="aw"><text x="48" y="495">1</text><use href="#e" y="150"/><use href="#ac" y="100"/></g><g id="ax"><text x="36" y="520">11</text><use href="#h" y="100"/><use href="#m" y="100"/><use href="#aa" y="100"/></g><g id="ay"><text x="36" y="545">12</text><use href="#h" y="125"/><use href="#m" y="125"/><use href="#ab" y="100"/></g><g id="az"><text x="36" y="570">13 mrmarble   20   0</text><use href="#l" y="100"/><use href="#w" y="100"/></g><g id="ba"><text x="36" y="620">39 mrmarble   20   0</text><use href="#l" y="150"/><use href="#x" y="100"/></g><g id="bb"><text x="36" y="645">44 mrmarble   20   0</text><use href="#b"/><use href="#p" y="100"/><use href="#c"/></g><g id="bc"><text x="36" y="670">45 mrmarble   20   0</text><use href="#b" y="25"/><use href="#ag" y="100"/><use href="#c" y="25"/></g><g id="bd"><text x="36" y="695">46 mrmarble   20   0</text><use href="#b" y="50"/><use href="#ah" y="100"/><use href="#c" y="50"/></g><g id="be"><text x="36" y="720">47 mrmarble   20   0</text><use href="#b" y="75"/><use href="#ai" y="100"/><use href="#c" y="75"/></g><g id="bf"/><g id="bg"><use href="#f"/><use href="#d"/></g><g id="bh"><use href="#f"/><use href="#d"/><text x="312" y="20" class="h b">h</text><text x="324" y="20" class="e">top</text></g><g id="bi"><use href="#f"/><use href="#d"/><text x="312" y="20" class="h b">ht</text><text x="336" y="20" class="e">op</text></g><g id="bj"><use href="#f"/><use href="#d"/><text x="312" y="20" class="h b">hto</text><text x="348" y="20" class="e">p</text></g><use id="bk" href="#aj"/><g id="bl"/><g id="bm"><use href="#ak"/><use href="#t"/><use href="#a"/><use href="#s"/><use href="#a" x="348"/><use href="#r"/><use href="#a" x="696"/><use href="#q"/><use href="#j"/><text x="1116" y="70" class="l">|||||||||||||||100.0%</text><use href="#i"/><use href="#al"/><use href="#am"/><use href="#an"/><use href="#ao"/><use href="#ap"/><use href="#aq"/><use href="#o"/><text x="816" y="245" class="g b">13:54:53</text><use href="#ar"/><rect class="d" y="300" width="1440" height="25"/><text x="12" y="320" class="c">4385 mrmarble   20   0  8284  3688  3028 R 342.  0.0  0:00.01 htop</text><text x="48" y="345">5</text><use href="#e"/><use href="#y"/><text x="48" y="370">6</text><use href="#e" y="25"/><use href="#z"/><text x="48" y="395">1</text><use href="#e" y="50"/><use href="#ac"/><text x="36" y="420">11</text><use href="#h"/><use href="#m"/><use href="#aa"/><text x="36" y="445">12</text><use href="#h" y="25"/><use href="#m" y="25"/><use href="#ab"/><text x="36" y="470">13 mrmarble   20   0</text><use href="#l"/><use href="#w"/><use href="#v"/><text x="36" y="520">39 mrmarble   20   0</text><use href="#l" y="50"/><use href="#x"/><text x="36" y="545">44 mrmarble   20   0</text><use href="#b" y="-100"/><use href="#p"/><use href="#c" y="-100"/><text x="36" y="570">45 mrmarble   20   0</text><use href="#b" y="-75"/><use href="#ag"/><use href="#c" y="-75"/><text x="36" y="595">46 mrmarble   20   0</text><use href="#b" y="-50"/><use href="#ah"/><use href="#c" y="-50"/><text x="36" y="620">47 mrmarble   20   0</text><use href="#b" y="-25"/><use href="#ai"/><use href="#c" y="-25"/><text x="36" y="645">48 mrmarble   20   0</text><use href="#b"/><text x="456" y="645">760 S  0.0  1.1  0:03.69</text><use href="#c"/><text x="36" y="670">49 mrmarble   20   0</text><use href="#b" y="25"/><use href="#p" y="125"/><use href="#c" y="25"/><text x="36" y="695">50 mrmarble   20   0</text><use href="#b" y="50"/><use href="#af"/><use href="#c" y="50"/><text x="36" y="720">51 mrmarble   20   0</text><use href="#b" y="75"/><use href="#af" y="25"/><use href="#c" y="75"/><use href="#as"/></g><g id="bn"><use href="#ak"/><use href="#t"/><use href="#a"/><use href="#s"/><use href="#a" x="348"/><use href="#r"/><use href="#a" x="696"/><use href="#q"/><use href="#a" x="1044"/><use href="#al"/><use href="#am"/><use href="#an"/><use href="#ao"/><use href="#ap"/><use href="#aq"/><use href="#o"/><text x="816" y="245" class="g b">13:54:55</text><use href="#ar"/><rect class="d" y="300" width="1440" height="25"/><text x="12" y="320" class="c">3192 mrmarble   20   0 1484M  9476  2880 S  2.0  0.1  0:00.15 ./../swatch/swatch examples/session.svg</text><use href="#ad"/><use href="#k"/><text x="456" y="345">880 S  0.7  0.1  0:00.02</text><use href="#n"/><use href="#ae"/><use href="#k" y="25"/><text x="456" y="370">880 S  0.7  0.1  0:00.01</text><use href="#n" y="25"/><text x="12" y="395">3557</text><use href="#u"/><text x="312" y="395">512   560     0 S  0.7  0.0  0:00.01 /init</text><use href="#at"/><use href="#au"/><use href="#av"/><use href="#aw"/><use href="#ax"/><use href="#ay"/><use href="#az"/><use href="#v" y="100"/><use href="#ba"/><use href="#bb"/><use href="#bc"/><use href="#bd"/><use href="#be"/><use href="#as"/></g><g id="bo"><use href="#ak"/><use href="#t"/><use href="#a"/><use href="#s"/><use href="#a" x="348"/><use href="#r"/><use href="#a" x="696"/><use href="#q"/><use href="#j"/><text x="1116" y="70" class="l">|</text><text x="1320" y="70" class="e b">0.7%</text><use href="#i"/><use href="#al"/><use href="#am"/><use href="#an"/><use href="#ao"/><use href="#ap"/><use href="#aq"/><use href="#o"/><text x="816" y="245" class="g b">13:54:56</text><use href="#ar"/><rect class="d" y="300" width="1440" height="25"/><text x="12" y="320" class="c">3192 mrmarble   20   0 1484M  9476  2880 S  0.0  0.1  0:00.15 ./../swatch/swatch examples/session.svg</text><use href="#ad"/><use href="#k"/><text x="456" y="345">880 S  0.0  0.1  0:00.02</text><use href="#n"/><use href="#ae"/><use href="#k" y="25"/><text x="456" y="370">880 S  0.0  0.1  0:00.01</text><use href="#n" y="25"/><text x="12" y="395">3557</text><use href="#u"/><text x="312" y="395">512   560     0 S  0.0  0.0  0:00.01 /init</text><use href="#at"/><use href="#au"/><use href="#av"/><use href="#aw"/><use href="#ax"/><use href="#ay"/><use href="#az"/><use href="#v" y="100"/><use href="#ba"/><use href="#bb"/><use href="#bc"/><use href="#bd"/><use href="#be"/><use href="#as"/></g><use id="bp" href="#aj"/><g id="bq"><use href="#aj"/><use href="#g"/><use href="#d" y="25"/></g><g id="br"><use href="#aj"/><use href="#g"/><use href="#d" y="25"/><text x="312" y="45" class="m">e</text><text x="324" y="45" class="e">xit</text></g><g id="bs"><use href="#aj"/><use href="#g"/><use href="#d" y="25"/><text x="312" y="45" class="f">ex</text><text x="336" y="45" class="e">it</text></g><g id="bt"><use href="#aj"/><use href="#g"/><use href="#d" y="25"/><text x="312" y="45" class="h b">exi</text><text x="348" y="45" class="e">t</text></g><g id="bu"><use href="#aj"/><use href="#g"/><use href="#d" y="25"/><text x="312" y="45" class="f">exit</text></g></defs><g transform="translate(20,40)" clip-path="url(#clip)"><style>@keyframes blink{0%,50%{opacity:1}50.01%,100%{opacity:0}}text{font-family:Monaco,Consolas,'Courier New',monospace;font-size:20px;fill:#C0C0C0;white-space:pre}.a{fill:#008080}.b{font-weight:bold}.c{fill:#000}.d{fill:#008080}.e{fill:#808080}.f{fill:#008000}.g{fill:#0FF}.h{fill:#F00}.i{fill:#0F0}.j{fill:#008000}.k{fill:#00F}.l{fill:#800000}.m{text-decoration:underline}.n{fill:#C0C0C0;animation:blink 1s step-end infinite}.o{fill:#000080}.p{fill:#808000}.q{fill:#FF0}</style><use href="#bf"><animate attributeName="href" values="#bf;#bg;#bh;#bi;#bj;#bk;#bl;#bm;#bn;#bo;#bp;#bq;#br;#bs;#bt;#bu" keyTimes="0;.07169;.20164;.21956;.23749;.33607;.34055;.34951;.55115;.75727;.82896;.83345;.91858;.94099;.95891;1" calcMode="discrete" dur="7.439s" repeatCount="indefinite"/></use><g transform="translate(0,0)" visibility="visible"><animateTransform attributeName="transform" type="translate" values="0 0;312 0;324 0;336 0;348 0;0 25;0 0;0 25;312 25;324 25;336 25;348 25;348 25" keyTimes="0;.07169;.20164;.21956;.23749;.33607;.34055;.82896;.83345;.91858;.94099;.95891;1" calcMode="discrete" dur="7.439s" repeatCount="indefinite"/><animate attributeName="visibility" values="visible;visible;visible;visible;visible;visible;hidden;visible;visible;visible;visible;visible;visible" keyTimes="0;.07169;.20164;.21956;.23749;.33607;.34055;.82896;.83345;.91858;.94099;.95891;1" calcMode="discrete" dur="7.439s" repeatCount="indefinite"/><rect class="n" width="12" height="25"/></g></g></svg>